<svg xmlns="http://www.w3.org/2000/svg" viewBox="0 0 152 152"><circle fill="#fa690a" cx="76" cy="76" r="75" /><path fill="#fff" d="M 71.93 116.79 a 48.07 48.07 0 0 0 24.67 -6.46 a 38.85 38.85 0 0 0 15.82 -17.74 a 4.53 4.53 0 0 0 -8.3 -3.65 A 29.84 29.84 0 0 1 92 102.54 a 39 39 0 0 1 -20 5.18 H 59.39 a 2.5 2.5 0 0 1 -2.19 -2.19 v -59 a 2.38 2.38 0 0 1 2.19 -2.19 H 71.95 c 10.77 -0.06 19.76 3.19 26 9.39 a 28.77 28.77 0 0 1 6.5 9.95 a 34 34 0 0 1 2.28 12 c 0 0.19 0 0.39 0 0.59 a 4.47 4.47 0 0 0 4.54 4.51 h 0.51 l 27.66 0 V 71.59 l -23.85 0 a 42 42 0 0 0 -2.69 -11.32 a 37.78 37.78 0 0 0 -8.54 -13.06 a 39.48 39.48 0 0 0 -14 -8.92 a 51.13 51.13 0 0 0 -18.39 -3.11 H 59.39 A 11.42 11.42 0 0 0 48.13 46.48 V 55 H 34.56 a 4.53 4.53 0 0 0 0 9.07 H 48.13 V 87.91 H 34.56 a 4.53 4.53 0 0 0 0 9.07 H 48.13 v 8.55 a 11.05 11.05 0 0 0 3.61 8.12 a 11.39 11.39 0 0 0 7.65 3.14 Z" /></svg>